<?xml version="1.0" encoding="iso-8859-1"?>
<!-- Generator: Adobe Illustrator 19.0.0, SVG Export Plug-In . SVG Version: 6.00 Build 0)  -->
<svg version="1.1" id="Layer_1" xmlns="http://www.w3.org/2000/svg" xmlns:xlink="http://www.w3.org/1999/xlink" x="0px" y="0px"
	 viewBox="0 0 410 410" style="enable-background:new 0 0 410 410;" xml:space="preserve">
<g id="XMLID_38_">
	<circle id="XMLID_3299_" style="fill:#4CD1B6;" cx="205" cy="205" r="195"/>
	<path id="XMLID_3292_" style="fill:#ECF0F1;" d="M205,360c-85.467,0-155-69.533-155-155S119.533,50,205,50
		c85.467,0,155,69.533,155,155S290.467,360,205,360z"/>
	<g id="XMLID_204_">
		<path id="XMLID_233_" style="fill:#231F20;" d="M205,0C91.962,0,0,91.962,0,205s91.962,205,205,205c113.037,0,205-91.962,205-205
			S318.037,0,205,0z M205,390c-102.009,0-185-82.991-185-185S102.991,20,205,20c102.01,0,185,82.991,185,185S307.01,390,205,390z"/>
		<path id="XMLID_1976_" style="fill:#231F20;" d="M205,40c-90.981,0-165,74.019-165,165s74.019,165,165,165s165-74.019,165-165
			S295.981,40,205,40z M205,350c-79.953,0-145-65.047-145-145S125.047,60,205,60s145,65.047,145,145S284.953,350,205,350z"/>
		<path id="XMLID_1979_" style="fill:#231F20;" d="M251.067,205.233c-4.304-2.707-9.212-4.959-14.567-6.718V129H252
			c5.522,0,10-4.477,10-10s-4.478-10-10-10h-15.5V89c0-5.523-4.478-10-10-10s-10,4.477-10,10v20h-10c-3.392,0-6.731,0.17-10,0.492
			V89c0-5.523-4.477-10-10-10s-10,4.477-10,10v24.745c-5.393,1.854-10.35,4.228-14.716,7.082C148.381,129.59,141,142.436,141,157v10
			c0,14.576,7.434,27.279,20.932,35.767c4.305,2.707,9.212,4.959,14.568,6.718V279H161c-5.523,0-10,4.477-10,10s4.477,10,10,10h15.5
			v20c0,5.523,4.477,10,10,10s10-4.477,10-10v-20h10c3.396,0,6.735-0.161,10-0.466V319c0,5.523,4.478,10,10,10s10-4.477,10-10
			v-24.515c5.356-1.76,10.263-4.011,14.567-6.718C264.566,279.279,272,266.576,272,252v-11
			C272,226.424,264.566,213.721,251.067,205.233z M176.5,187.928C167.344,183.51,161,176.615,161,167v-10
			c0-9.623,6.279-16.839,15.5-21.536V187.928z M216.5,278.408c-3.313,0.395-6.676,0.592-10,0.592h-10v-65.466
			c3.265,0.305,6.604,0.466,10,0.466c3.324,0,6.687,0.198,10,0.592V278.408z M216.5,194.466c-3.265-0.305-6.604-0.466-10-0.466
			c-3.324,0-6.687-0.198-10-0.592v-63.771c3.29-0.42,6.647-0.637,10-0.637h10V194.466z M252,252c0,9.615-6.344,16.51-15.5,20.928
			v-52.856C245.656,224.49,252,231.385,252,241V252z"/>
	</g>
</g>
<g>
</g>
<g>
</g>
<g>
</g>
<g>
</g>
<g>
</g>
<g>
</g>
<g>
</g>
<g>
</g>
<g>
</g>
<g>
</g>
<g>
</g>
<g>
</g>
<g>
</g>
<g>
</g>
<g>
</g>
</svg>
